<svg width="30" height="32" viewBox="0 0 30 32" fill="none" xmlns="http://www.w3.org/2000/svg">
<path d="M3.75 31.8207C2.71875 31.8207 1.83563 31.5099 1.10063 30.8883C0.365628 30.2667 -0.00124682 29.5204 3.18336e-06 28.6493V9.62073C3.18336e-06 8.74859 0.367503 8.00172 1.1025 7.38012C1.8375 6.75852 2.72 6.44824 3.75 6.4493H7.5C7.5 4.70502 8.23438 3.2118 9.70313 1.96966C11.1719 0.727517 12.9375 0.106445 15 0.106445C17.0625 0.106445 18.8281 0.727517 20.2969 1.96966C21.7656 3.2118 22.5 4.70502 22.5 6.4493H26.25C27.2812 6.4493 28.1644 6.7601 28.8994 7.3817C29.6344 8.0033 30.0012 8.74964 30 9.62073V28.6493C30 29.5214 29.6325 30.2683 28.8975 30.8899C28.1625 31.5115 27.28 31.8218 26.25 31.8207H3.75ZM3.75 28.6493H26.25V9.62073H22.5V12.7922C22.5 13.2414 22.32 13.6183 21.96 13.9228C21.6 14.2272 21.155 14.3789 20.625 14.3779C20.0937 14.3779 19.6481 14.2256 19.2881 13.9212C18.9281 13.6167 18.7487 13.2404 18.75 12.7922V9.62073H11.25V12.7922C11.25 13.2414 11.07 13.6183 10.71 13.9228C10.35 14.2272 9.905 14.3789 9.375 14.3779C8.84375 14.3779 8.39813 14.2256 8.03813 13.9212C7.67813 13.6167 7.49875 13.2404 7.5 12.7922V9.62073H3.75V28.6493ZM11.25 6.4493H18.75C18.75 5.57716 18.3825 4.83029 17.6475 4.20869C16.9125 3.58709 16.03 3.27682 15 3.27787C13.9687 3.27787 13.0856 3.58867 12.3506 4.21027C11.6156 4.83187 11.2488 5.57822 11.25 6.4493Z" fill="white"/>
</svg>
