<svg width="30" height="32" viewBox="0 0 30 32" fill="none" xmlns="http://www.w3.org/2000/svg">
<path d="M15 0C16.9891 0 18.8968 0.835135 20.3033 2.32169C21.7098 3.80824 22.5 5.82443 22.5 7.92673C22.5 10.029 21.7098 12.0452 20.3033 13.5318C18.8968 15.0183 16.9891 15.8535 15 15.8535C13.0109 15.8535 11.1032 15.0183 9.6967 13.5318C8.29018 12.0452 7.5 10.029 7.5 7.92673C7.5 5.82443 8.29018 3.80824 9.6967 2.32169C11.1032 0.835135 13.0109 0 15 0ZM15 3.96337C14.0054 3.96337 13.0516 4.38093 12.3484 5.12421C11.6451 5.86749 11.25 6.87558 11.25 7.92673C11.25 8.97788 11.6451 9.98598 12.3484 10.7293C13.0516 11.4725 14.0054 11.8901 15 11.8901C15.9946 11.8901 16.9484 11.4725 17.6516 10.7293C18.3549 9.98598 18.75 8.97788 18.75 7.92673C18.75 6.87558 18.3549 5.86749 17.6516 5.12421C16.9484 4.38093 15.9946 3.96337 15 3.96337ZM15 17.8351C20.0063 17.8351 30 20.4708 30 25.7619V31.7069H0V25.7619C0 20.4708 9.99375 17.8351 15 17.8351ZM15 21.6003C9.43125 21.6003 3.5625 24.4936 3.5625 25.7619V27.9417H26.4375V25.7619C26.4375 24.4936 20.5688 21.6003 15 21.6003Z" fill="white"/>
</svg>
